HIERARCHY
ROOT hip
{
	OFFSET 0.000000 0.000000 0.000000 
	CHANNELS 6 Xposition Yposition Zposition Xrotation Zrotation Yrotation
	JOINT abdomen
	{
		OFFSET 0.000000 3.402643 0.000000 
		CHANNELS 3 Xrotation Zrotation Yrotation
		JOINT chest
		{
			OFFSET 0.000000 8.438565 -0.680529 
			CHANNELS 3 Xrotation Zrotation Yrotation
			JOINT neckDummy
			{
				OFFSET 0.000000 8.059053 0.760605 
				CHANNELS 3 Xrotation Yrotation Zrotation
				JOINT neck
				{
					OFFSET 0.000000 10.207942 -0.272212 
					CHANNELS 3 Xrotation Zrotation Yrotation
					JOINT head
					{
						OFFSET 0.000000 3.130431 0.000000 
						CHANNELS 3 Xrotation Zrotation Yrotation
						End Site
						{
							OFFSET 0.000000 3.130435 0.000000 
						}
					}
				}
			}
			JOINT lCollar
			{
				OFFSET 3.470700 6.669187 -0.816635 
				CHANNELS 3 Yrotation Zrotation Xrotation
				JOINT lShldr
				{
					OFFSET 3.198488 0.000000 0.000000 
					CHANNELS 3 Zrotation Yrotation Xrotation
					JOINT lForeArm
					{
						OFFSET 10.139888 0.000000 0.000000 
						CHANNELS 3 Yrotation Zrotation Xrotation
						JOINT lHand
						{
							OFFSET 8.370511 0.000000 0.000000 
							CHANNELS 3 Zrotation Yrotation Xrotation
							End Site
							{
								OFFSET 4.083176 0.000000 0.000000 
							}
						}
					}
				}
			}
			JOINT rCollar
			{
				OFFSET -3.470700 6.669187 -0.816635 
				CHANNELS 3 Yrotation Zrotation Xrotation
				JOINT rShldr
				{
					OFFSET -3.198488 0.000000 0.000000 
					CHANNELS 3 Zrotation Yrotation Xrotation
					JOINT rForeArm
					{
						OFFSET -10.139888 0.000000 0.000000 
						CHANNELS 3 Yrotation Zrotation Xrotation
						JOINT rHand
						{
							OFFSET -8.370511 0.000000 0.000000 
							CHANNELS 3 Zrotation Yrotation Xrotation
							End Site
							{
								OFFSET -4.083176 0.000000 0.000000 
							}
						}
					}
				}
			}
		}
	}
	JOINT lThigh
	{
		OFFSET 5.308129 -1.633274 1.361059 
		CHANNELS 3 Xrotation Zrotation Yrotation
		JOINT lShin
		{
			OFFSET -2.041588 -20.007561 0.000000 
			CHANNELS 3 Xrotation Zrotation Yrotation
			JOINT lFoot
			{
				OFFSET 0.000000 -19.190928 -1.224953 
				CHANNELS 3 Xrotation Yrotation Zrotation
				End Site
				{
					OFFSET 0.000000 -2.449906 4.627600 
				}
			}
		}
	}
	JOINT rThigh
	{
		OFFSET -5.308129 -1.633274 1.361059 
		CHANNELS 3 Xrotation Zrotation Yrotation
		JOINT rShin
		{
			OFFSET 2.041588 -20.007561 0.000000 
			CHANNELS 3 Xrotation Zrotation Yrotation
			JOINT rFoot
			{
				OFFSET 0.000000 -19.190928 -1.224953 
				CHANNELS 3 Xrotation Yrotation Zrotation
				End Site
				{
					OFFSET 0.000000 -2.449906 4.627600 
				}
			}
		}
	}
}
MOTION
Frames: 17
Frame Time: 0.033333
0.442582 38.176334 3.369106 -5.507905 0.136719 -0.039062 46.268723 6.443556 -28.231169 11.074219 0.000000 -10.703125 0.000000 0.000000 0.000000 -8.544920 -0.009766 -0.009767 8.914571 17.495535 28.126881 1.992188 -2.001953 0.000341 71.757164 -47.614384 -61.838840 -27.199694 -0.740092 8.398826 -8.955896 -40.012066 -139.357620 -2.001953 1.992188 0.000000 37.608963 118.701202 13.292218 41.809723 0.607140 8.503316 18.165300 -26.109423 -97.977043 -47.313164 7.919688 -1.325466 63.303478 0.628878 -3.940354 -10.927551 -1.561869 -5.752923 -8.943879 -9.461602 3.178339 58.802212 -0.389112 3.742311 -44.713322 -3.691955 7.493417 
0.435157 36.827824 3.361682 -5.507905 0.136719 -0.039062 46.937523 5.568450 -26.010204 12.403676 0.249424 -10.781316 0.000000 0.000000 0.000000 -8.544920 -0.009766 -0.009767 14.713095 14.201917 28.018576 1.992188 -2.001953 0.000341 71.248184 -49.416798 -61.359550 -31.357775 -0.697544 8.419785 -8.955896 -40.012066 -139.357620 -2.001953 1.992188 0.000000 40.309917 115.911888 16.773815 41.331284 0.612031 8.506112 18.220842 -25.014910 -97.532387 -51.989120 7.880297 -1.683504 69.597290 1.057909 -4.102130 -12.573390 -1.532968 -5.849361 -12.311266 -9.451041 3.660767 65.320717 -0.819477 3.941262 -47.909313 -3.889350 7.627832 
0.420310 35.607906 3.346834 -5.507905 0.136719 -0.039062 47.595654 4.658529 -23.509888 13.891198 0.537099 -10.850041 0.000000 0.000000 0.000000 -8.544920 -0.009766 -0.009767 21.081135 11.236382 27.524517 1.992188 -2.001953 0.000341 70.949051 -51.343529 -60.834583 -35.888805 -0.667812 8.455858 -8.955896 -40.012066 -139.357620 -2.001953 1.992188 0.000000 44.532753 113.045219 21.535933 40.832260 0.611397 8.495197 18.317741 -23.902178 -97.090347 -55.056301 7.850863 -1.942561 73.670830 1.340228 -4.148299 -13.637100 -1.568520 -5.937702 -14.517251 -9.421545 3.963027 69.559662 -1.102928 4.022424 -50.003727 -3.969234 7.734045 
0.405463 34.388065 3.331987 -5.507905 0.136719 -0.039062 48.214455 3.711061 -21.012409 15.378028 0.824641 -10.919071 0.000000 0.000000 0.000000 -8.544920 -0.009766 -0.009767 27.430643 8.345041 26.721144 1.992188 -2.001953 0.000341 70.606270 -53.259369 -60.266182 -40.430199 -0.641462 8.500222 -8.955896 -40.012066 -139.357620 -2.001953 1.992188 0.000000 49.983978 110.348183 27.521105 40.342636 0.619240 8.488792 18.434368 -22.791332 -96.659714 -58.110252 7.811473 -2.193887 77.743896 1.632801 -4.183308 -14.682514 -1.580513 -6.025115 -16.713644 -9.382381 4.243021 73.797836 -1.405940 4.086677 -52.069740 -4.064987 7.821280 
0.380722 34.224766 3.307246 -5.507905 0.136719 -0.039062 48.718685 2.906209 -18.618469 16.789951 1.092912 -10.978453 0.000000 0.000000 0.000000 -8.544920 -0.009766 -0.009767 32.852047 6.565289 25.807611 1.992188 -2.001953 0.000341 69.886642 -55.260044 -59.068016 -45.124756 -0.603670 8.531906 -8.955896 -40.012066 -139.357620 -2.001953 1.992188 0.000000 56.594048 107.826111 34.433540 39.835072 0.621430 8.490726 18.596256 -21.692480 -96.230576 -58.691338 7.850464 -2.246809 78.406059 1.680181 -4.199924 -14.826495 -1.599758 -6.051579 -17.118305 -9.345247 4.291251 74.538345 -1.454634 4.099099 -52.479916 -4.085428 7.819355 
0.355980 34.061474 3.282504 -5.507905 0.136719 -0.039062 49.182022 2.072253 -16.231344 18.189913 1.370704 -11.028505 0.000000 0.000000 0.000000 -8.544920 -0.009766 -0.009767 38.295200 4.871967 24.734472 1.992188 -2.001953 0.000341 69.041656 -57.259228 -57.752945 -49.817322 -0.580725 8.573385 -8.955896 -40.012066 -139.357620 -2.001953 1.992188 0.000000 65.209320 105.619041 43.341194 39.327469 0.617935 8.483590 18.762812 -20.590660 -95.800011 -59.312645 7.880230 -2.296894 79.107971 1.730117 -4.196097 -14.999541 -1.660710 -6.101419 -17.526352 -9.315085 4.331035 75.288544 -1.513223 4.103834 -52.890663 -4.104440 7.805275 
0.336186 33.942711 3.262710 -5.507905 0.136719 -0.039062 49.503098 1.485449 -14.340636 19.290565 1.581421 -11.058779 0.000000 0.000000 0.000000 -8.544920 -0.009766 -0.009767 41.099216 4.565305 23.869820 1.992188 -2.001953 0.000341 66.947548 -59.298061 -55.009007 -54.516289 -0.559735 8.616149 -8.955896 -40.012066 -139.357620 -2.001953 1.992188 0.000000 73.842186 103.617546 52.138165 38.827835 0.632309 8.481394 18.968498 -19.476006 -95.358101 -59.843773 7.918689 -2.342601 79.604248 1.778632 -4.204344 -15.133360 -1.680498 -6.128063 -17.854074 -9.284048 4.360454 75.892899 -1.552164 4.107304 -53.301350 -4.133350 7.793176 
0.316392 33.823944 3.242915 -5.507905 0.136719 -0.039062 49.802063 0.896376 -12.452679 20.389116 1.801679 -11.089489 0.000000 0.000000 0.000000 -8.544920 -0.009766 -0.009767 43.907349 4.289721 22.988646 1.992188 -2.001953 0.000341 64.520737 -61.285797 -51.938492 -59.212029 -0.551028 8.661571 -8.955896 -40.012066 -139.357620 -2.001953 1.992188 0.000000 85.101456 102.034607 63.567394 38.319935 0.636130 8.478769 19.180897 -18.368832 -94.917549 -60.407539 7.948540 -2.411380 80.130325 1.807659 -4.219280 -15.267269 -1.690015 -6.171340 -18.199282 -9.256170 4.379211 76.506927 -1.601003 4.103156 -53.712997 -4.155582 7.762257 
0.294120 33.712589 3.220644 -5.507905 0.136719 -0.039062 49.943813 0.612465 -11.494728 20.953730 1.906968 -11.109637 0.000000 0.000000 0.000000 -8.544920 -0.009766 -0.009767 44.883965 4.429798 22.552193 1.992188 -2.001953 0.000341 59.556011 -63.152954 -46.338715 -63.730938 -0.533001 8.708553 -8.955896 -40.012066 -139.357620 -2.001953 1.992188 0.000000 94.479027 100.291122 73.184715 37.802406 0.633089 8.468051 19.418499 -17.258089 -94.474335 -60.900070 7.977596 -2.453153 80.500618 1.836955 -4.218467 -15.382078 -1.738947 -6.224146 -18.517570 -9.235137 4.399393 77.004036 -1.630319 4.108980 -54.094955 -4.169516 7.740517 
0.271849 33.601242 3.198375 -5.507905 0.136719 -0.039062 50.077839 0.316841 -10.527505 21.508846 2.012309 -11.120056 0.000000 0.000000 0.000000 -8.544920 -0.009766 -0.009767 45.868305 4.570417 22.115099 1.992188 -2.001953 0.000341 53.875820 -64.754486 -40.013695 -68.250664 -0.522443 8.754007 -8.955896 -40.012066 -139.357620 -2.001953 1.992188 0.000000 -72.797218 81.067741 -93.856949 37.284698 0.636679 8.463470 19.662302 -16.145584 -94.031616 -61.402424 8.007323 -2.494474 80.861938 1.856476 -4.205922 -15.503660 -1.757265 -6.271595 -18.855373 -9.217873 4.428350 77.481194 -1.669169 4.116031 -54.496090 -4.200610 7.724739 
0.247109 33.551773 3.173633 -5.507905 0.136719 -0.039062 50.114769 0.230674 -10.195386 21.696272 2.050570 -11.130160 0.000000 0.000000 0.000000 -8.544920 -0.009766 -0.009767 46.734070 4.420268 21.992968 1.992188 -2.001953 0.000341 46.323006 -65.852730 -31.954876 -72.412521 -0.511934 8.795646 -8.955896 -40.012066 -139.357620 -2.001953 1.992188 0.000000 -58.918373 82.543762 -79.619034 36.777851 0.638480 8.464021 19.930096 -15.043336 -93.576965 -61.865471 8.035885 -2.536737 81.095314 1.875769 -4.217617 -15.585073 -1.775698 -6.317725 -19.112707 -9.186476 4.466640 77.872276 -1.669481 4.111070 -54.888130 -4.234668 7.693143 
0.222367 33.502300 3.148891 -5.507905 0.136719 -0.039062 50.150688 0.144319 -9.863299 21.884039 2.088897 -11.130512 0.000000 0.000000 0.000000 -8.544920 -0.009766 -0.009767 47.603401 4.279195 21.861244 1.992188 -2.001953 0.000341 38.200455 -66.483276 -23.322037 -76.561607 -0.518400 8.846175 -8.955896 -40.012066 -139.357620 -2.001953 1.992188 0.000000 -39.887856 83.396317 -60.232185 36.269558 0.644632 8.455450 20.195187 -13.940448 -93.122108 -62.347374 8.065594 -2.569293 81.339241 1.885550 -4.218270 -15.659040 -1.789354 -6.350183 -19.380547 -9.148915 4.483111 78.281189 -1.699363 4.122660 -55.289139 -4.303136 7.673880 
0.195149 33.445423 3.121673 -5.507905 0.136719 -0.039062 50.156254 0.057775 -9.589838 22.044394 2.117643 -11.130509 0.000000 0.000000 0.000000 -8.544920 -0.009766 -0.009767 48.000076 4.301709 21.715237 1.992188 -2.001953 0.000341 30.808884 -66.613327 -15.480651 -80.204079 -0.507033 8.881112 -8.955896 -40.012066 -139.357620 -2.001953 1.992188 0.000000 -18.158033 83.441727 -38.141117 35.761189 0.651410 8.445537 20.489038 -12.832081 -92.677010 -62.771038 8.104832 -2.626458 81.504639 1.905681 -4.217387 -15.759475 -1.816461 -6.390861 -19.626186 -9.129929 4.482213 78.581543 -1.747838 4.143604 -55.663662 -4.339431 7.599849 
0.167931 33.388546 3.094455 -5.507905 0.136719 -0.039062 50.160995 -0.028910 -9.316410 22.204384 2.146317 -11.140630 0.000000 0.000000 0.000000 -8.544920 -0.009766 -0.009767 48.393051 4.315151 21.568499 1.992188 -2.001953 0.000341 23.455273 -66.343033 -7.675828 -83.841965 -0.505510 8.921389 -8.955896 -40.012066 -139.357620 -2.001953 1.992188 0.000000 1.171234 82.586258 -18.465656 35.244453 0.653379 8.442947 20.778481 -11.726699 -92.217308 -63.163651 8.133370 -2.649597 81.640793 1.923839 -4.216713 -15.850178 -1.827855 -6.455923 -19.868210 -9.099857 4.509763 78.873817 -1.767235 4.148508 -56.046135 -4.374851 7.563932 
0.148132 33.368721 3.074656 -5.507905 0.136719 -0.039062 50.140858 -0.086784 -9.101583 22.325672 2.175061 -11.140627 0.000000 0.000000 0.000000 -8.544920 -0.009766 -0.009767 48.341011 4.492818 21.407570 1.992188 -2.001953 0.000341 17.879715 -65.837379 -1.552586 -86.773056 -0.519164 8.940159 -8.955896 -40.012066 -139.357620 -2.001953 1.992188 0.000000 15.607887 81.130173 -3.661802 34.727535 0.661430 8.447123 21.056622 -10.630890 -91.757851 -63.568378 8.163159 -2.703618 81.728622 1.925104 -4.218772 -15.916700 -1.826836 -6.490839 -20.071913 -9.079846 4.528277 79.118156 -1.767272 4.147754 -56.399483 -4.402340 7.525209 
0.128331 33.348900 3.054855 -5.507905 0.136719 -0.039062 50.120258 -0.144730 -8.876999 22.456724 2.203806 -11.140996 0.000000 0.000000 0.000000 -8.544920 -0.009766 -0.009767 48.285236 4.661424 21.255810 1.992188 -2.001953 0.000341 12.577831 -65.090126 4.303669 -89.699928 -0.523333 8.972399 -8.955896 -40.012066 -139.357620 -2.001953 1.992188 0.000000 25.418392 79.271820 6.496483 34.220257 0.665808 8.440990 21.352732 -9.543681 -91.293900 -63.961731 8.192890 -2.737648 81.787895 1.925354 -4.201476 -15.968888 -1.846802 -6.526080 -20.277943 -9.050832 4.535554 79.342552 -1.777021 4.148150 -56.751999 -4.447601 7.503837 
0.101112 33.348900 3.027636 -5.507905 0.136719 -0.039062 50.079922 -0.202707 -8.720786 22.550606 2.222970 -11.140994 0.000000 0.000000 0.000000 -8.544920 -0.009766 -0.009767 47.804832 4.976759 21.089802 1.992188 -2.001953 0.000341 9.019634 -64.461098 8.164083 -91.737389 -0.527203 8.989317 -8.955896 -40.012066 -139.357620 -2.001953 1.992188 0.000000 32.464638 77.216621 13.908822 33.714329 0.661072 8.433546 21.637400 -8.446327 -90.827110 -64.305939 8.221507 -2.771124 81.797668 1.923916 -4.203021 -16.023638 -1.847308 -6.572488 -20.472778 -9.021624 4.542833 79.518578 -1.777230 4.144790 -57.095764 -4.492380 7.457829 
